<?xml version="1.0" encoding="utf-8"?>
<!-- Generator: Adobe Illustrator 19.2.0, SVG Export Plug-In . SVG Version: 6.00 Build 0)  -->
<svg version="1.1" id="Безимени-1_xA0_Изображение_1_"
	 xmlns="http://www.w3.org/2000/svg" xmlns:xlink="http://www.w3.org/1999/xlink" x="0px" y="0px" viewBox="0 0 26 45"
	 style="enable-background:new 0 0 26 45;" xml:space="preserve">
<style type="text/css">
	.st0{fill:url(#SVGID_1_);}
	.st1{fill:none;stroke:#FFFFFF;stroke-miterlimit:10;}
</style>
<g>
	
		<image style="overflow:visible;opacity:0.8;enable-background:new    ;" width="30" height="40" xlink:href="5517DE71791E0DBF.png"  transform="matrix(1 0 0 1 -2 2.5)">
	</image>
	<g>
		
			<linearGradient id="SVGID_1_" gradientUnits="userSpaceOnUse" x1="-555" y1="840.1755" x2="-555" y2="818.5199" gradientTransform="matrix(-1 0 0 1 -542 -805.89)">
			<stop  offset="0" style="stop-color:#D4D4D4"/>
			<stop  offset="1" style="stop-color:#FFFFFF"/>
		</linearGradient>
		<polygon class="st0" points="23.9,21.4 23.9,23.2 8.4,39 5.4,39 2.1,35.7 2.1,33.8 12.7,23.2 12.7,21.4 2.1,10.8 2.1,9.2 5.4,6 
			8.7,6 		"/>
		<polygon class="st1" points="23.9,21.4 23.9,23.2 8.4,39 5.4,39 2.1,35.7 2.1,33.8 12.7,23.2 12.7,21.4 2.1,10.8 2.1,9.2 5.4,6 
			8.7,6 		"/>
	</g>
</g>
</svg>
