<?xml version="1.0" encoding="utf-8"?>
<!-- Generator: Adobe Illustrator 19.2.0, SVG Export Plug-In . SVG Version: 6.00 Build 0)  -->
<svg version="1.1" id="Безимени-1_xA0_Изображение_1_"
	 xmlns="http://www.w3.org/2000/svg" xmlns:xlink="http://www.w3.org/1999/xlink" x="0px" y="0px" viewBox="0 0 26 45"
	 style="enable-background:new 0 0 26 45;" xml:space="preserve">
<style type="text/css">
	.st0{fill:url(#SVGID_1_);}
	.st1{fill:none;stroke:#FFFFFF;stroke-miterlimit:10;}
</style>
<g>
	
		<image style="overflow:visible;opacity:0.8;enable-background:new    ;" width="30" height="40" xlink:href="BB372512FD84E4B.png"  transform="matrix(1 0 0 1 -2 2.5)">
	</image>
	<g>
		
			<linearGradient id="SVGID_1_" gradientUnits="userSpaceOnUse" x1="13.6876" y1="10.3587" x2="12.8624" y2="32.0576" gradientTransform="matrix(1 0 0 -1 0 44.89)">
			<stop  offset="0" style="stop-color:#D4D4D4"/>
			<stop  offset="1" style="stop-color:#FFFFFF"/>
		</linearGradient>
		<polygon class="st0" points="2.1,23.6 2.1,21.8 17.6,6 20.6,6 23.9,9.3 23.9,11.2 13.3,21.8 13.3,23.6 23.9,34.2 23.9,35.8 
			20.6,39 17.3,39 		"/>
		<polygon class="st1" points="2.1,23.6 2.1,21.8 17.6,6 20.6,6 23.9,9.3 23.9,11.2 13.3,21.8 13.3,23.6 23.9,34.2 23.9,35.8 
			20.6,39 17.3,39 		"/>
	</g>
</g>
</svg>
