<?xml version="1.0" encoding="utf-8"?>
<!-- Generator: Adobe Illustrator 19.2.0, SVG Export Plug-In . SVG Version: 6.00 Build 0)  -->
<svg version="1.1" id="Слой_1" xmlns="http://www.w3.org/2000/svg" xmlns:xlink="http://www.w3.org/1999/xlink" x="0px" y="0px"
	 viewBox="0 0 162.2 37.9" style="enable-background:new 0 0 162.2 37.9;" xml:space="preserve">
<style type="text/css">
	.st0{fill:url(#SVGID_1_);}
	.st1{fill:url(#SVGID_2_);}
	.st2{fill:url(#SVGID_3_);}
	.st3{fill:url(#SVGID_4_);}
	.st4{fill:url(#SVGID_5_);}
	.st5{fill:url(#SVGID_6_);}
	.st6{fill:url(#SVGID_7_);}
	.st7{fill:url(#SVGID_8_);}
	.st8{fill:url(#SVGID_9_);}
	.st9{fill:url(#SVGID_10_);}
	.st10{fill:none;}
	.st11{fill:#FFFFFF;}
	.st12{font-family:'League Gothic';}
	.st13{font-size:48px;}
</style>
<g>
	<g>
		<linearGradient id="SVGID_1_" gradientUnits="userSpaceOnUse" x1="67.0488" y1="1.165" x2="67.0488" y2="37.2119">
			<stop  offset="0" style="stop-color:#000000"/>
			<stop  offset="1" style="stop-color:#6086C4;stop-opacity:0"/>
		</linearGradient>
		<path class="st0" d="M5.4,36.8V1.6h5.2c1.2,0,2.3,0.2,3.3,0.5c1,0.4,2,0.9,2.9,1.7c0.9,0.8,1.6,1.9,2.1,3.3s0.8,3.1,0.8,5
			c0,1.9-0.3,3.6-0.8,5c-0.5,1.4-1.2,2.5-2.1,3.3c-0.9,0.8-1.8,1.4-2.9,1.7c-1,0.4-2.1,0.5-3.3,0.5v14.1H5.4z M10.6,17.5
			c1.6,0,2.6-0.4,3.1-1.1c0.5-0.7,0.8-2.1,0.8-4.1c0-2.1-0.3-3.5-0.8-4.3c-0.5-0.8-1.6-1.2-3.1-1.2V17.5z"/>
		<linearGradient id="SVGID_2_" gradientUnits="userSpaceOnUse" x1="67.0488" y1="1.165" x2="67.0488" y2="37.2119">
			<stop  offset="0" style="stop-color:#000000"/>
			<stop  offset="1" style="stop-color:#6086C4;stop-opacity:0"/>
		</linearGradient>
		<path class="st1" d="M22.3,36.8V1.6h5.2v35.3H22.3z"/>
		<linearGradient id="SVGID_3_" gradientUnits="userSpaceOnUse" x1="67.0488" y1="1.165" x2="67.0488" y2="37.2119">
			<stop  offset="0" style="stop-color:#000000"/>
			<stop  offset="1" style="stop-color:#6086C4;stop-opacity:0"/>
		</linearGradient>
		<path class="st2" d="M31.3,36.8V1.6H36l4.9,18.4l0.4,1.6h0.4v-1.6V1.6h4.9v35.3h-4.7l-5.1-18.4l-0.4-1.6h-0.2v1.6v18.4H31.3z"/>
		<linearGradient id="SVGID_4_" gradientUnits="userSpaceOnUse" x1="67.0488" y1="1.165" x2="67.0488" y2="37.2119">
			<stop  offset="0" style="stop-color:#000000"/>
			<stop  offset="1" style="stop-color:#6086C4;stop-opacity:0"/>
		</linearGradient>
		<path class="st3" d="M49.9,30v-0.4V8.8c0-0.1,0-0.3,0-0.4S50,7.8,50,7.3s0.2-1,0.4-1.5s0.4-1,0.8-1.6s0.7-1.1,1.2-1.5
			s1.1-0.8,1.8-1.1s1.6-0.4,2.6-0.4s1.8,0.1,2.6,0.4s1.4,0.6,1.8,1.1s0.9,0.9,1.2,1.5s0.6,1.1,0.8,1.6s0.3,1,0.4,1.5
			s0.1,0.8,0.1,1.1l0,0.4v5.4h-5.2V8.8c0-0.1,0-0.2,0-0.3s0-0.3-0.1-0.6s-0.1-0.6-0.2-0.8s-0.3-0.4-0.5-0.6s-0.5-0.3-0.9-0.3
			c-0.5,0-1,0.2-1.2,0.6s-0.4,0.9-0.4,1.3l0,0.7V30c0,0.1,0,0.2,0,0.3s0,0.3,0.1,0.6c0.1,0.3,0.1,0.6,0.2,0.8s0.3,0.4,0.5,0.6
			s0.5,0.3,0.9,0.3c0.5,0,1-0.2,1.3-0.7s0.4-0.9,0.5-1.3l0-0.6v-6.4h-2.1v-4.4h7.2v17.6h-3.1L60,35.1c-1.1,1.4-2.5,2.1-4,2.1
			c-0.9,0-1.7-0.1-2.4-0.4s-1.3-0.6-1.7-1.1s-0.8-0.9-1.1-1.5s-0.5-1.1-0.6-1.6s-0.2-1-0.3-1.5c0-0.4,0-0.7,0-0.9
			C49.9,30.1,49.9,30.1,49.9,30z"/>
		<linearGradient id="SVGID_5_" gradientUnits="userSpaceOnUse" x1="67.0488" y1="1.165" x2="67.0488" y2="37.2119">
			<stop  offset="0" style="stop-color:#000000"/>
			<stop  offset="1" style="stop-color:#6086C4;stop-opacity:0"/>
		</linearGradient>
		<path class="st4" d="M67.5,36.8V1.6H72c3.2,0,5.5,0.7,7.1,2.1c1.5,1.4,2.3,3.8,2.3,7.2c0,1.7-0.2,3-0.7,4.1
			c-0.4,1.1-1.3,2.1-2.4,3.2c0.1,0,0.2,0.1,0.4,0.2c0.2,0.1,0.4,0.4,0.8,0.8c0.4,0.4,0.7,0.9,1,1.5c0.3,0.6,0.6,1.4,0.8,2.5
			c0.2,1.1,0.4,2.3,0.4,3.6c0,1.1-0.1,2.1-0.2,3c-0.2,0.9-0.4,1.8-0.8,2.7c-0.4,0.9-0.9,1.6-1.4,2.2s-1.3,1.1-2.2,1.5
			c-0.9,0.4-1.9,0.6-3.1,0.6H67.5z M72.7,16.1c0.3,0,0.4,0,0.5,0s0.3,0,0.6-0.1c0.3-0.1,0.6-0.1,0.8-0.2s0.4-0.3,0.7-0.5
			c0.3-0.2,0.5-0.5,0.6-0.8c0.1-0.3,0.3-0.7,0.4-1.3s0.2-1.1,0.2-1.8s-0.1-1.3-0.2-1.8s-0.2-1-0.4-1.3s-0.4-0.6-0.6-0.8
			C75,7.3,74.8,7.1,74.6,7s-0.4-0.2-0.8-0.2c-0.3-0.1-0.5-0.1-0.6-0.1s-0.3,0-0.5,0V16.1z M72.7,31.7c0,0,0.1,0,0.2,0
			c0.3,0,0.6,0,0.8,0s0.5-0.1,0.9-0.3s0.7-0.5,1-0.8s0.5-0.9,0.7-1.6s0.3-1.6,0.3-2.7c0-0.8-0.1-1.4-0.2-2s-0.2-1.1-0.4-1.5
			s-0.3-0.7-0.6-1s-0.5-0.5-0.6-0.6S74.3,21,74,21s-0.5-0.1-0.6-0.1s-0.3,0-0.6,0c-0.1,0-0.1,0-0.2,0V31.7z"/>
		<linearGradient id="SVGID_6_" gradientUnits="userSpaceOnUse" x1="67.0488" y1="1.165" x2="67.0488" y2="37.2119">
			<stop  offset="0" style="stop-color:#000000"/>
			<stop  offset="1" style="stop-color:#6086C4;stop-opacity:0"/>
		</linearGradient>
		<path class="st5" d="M84.9,30v-0.4v-28h5.2v28c0,0.1,0,0.2,0,0.3s0,0.3,0.1,0.6s0.1,0.6,0.2,0.8s0.3,0.4,0.5,0.6s0.5,0.3,0.9,0.3
			s0.6-0.1,0.9-0.3s0.4-0.4,0.5-0.6s0.2-0.5,0.2-0.8s0.1-0.5,0.1-0.7v-0.3v-28h5.2v28c0,0.1,0,0.3,0,0.4s-0.1,0.5-0.1,1.1
			s-0.2,1-0.4,1.5s-0.4,1-0.8,1.6s-0.8,1.1-1.2,1.5s-1.1,0.8-1.9,1.1s-1.6,0.4-2.6,0.4s-1.8-0.1-2.6-0.4s-1.4-0.6-1.8-1.1
			s-0.9-0.9-1.2-1.5s-0.6-1.1-0.8-1.6s-0.3-1-0.4-1.5S84.9,30.3,84.9,30z"/>
		<linearGradient id="SVGID_7_" gradientUnits="userSpaceOnUse" x1="67.0488" y1="1.165" x2="67.0488" y2="37.2119">
			<stop  offset="0" style="stop-color:#000000"/>
			<stop  offset="1" style="stop-color:#6086C4;stop-opacity:0"/>
		</linearGradient>
		<path class="st6" d="M102.5,36.8V1.6h5.2V32h6.9v4.9H102.5z"/>
		<linearGradient id="SVGID_8_" gradientUnits="userSpaceOnUse" x1="67.0488" y1="1.165" x2="67.0488" y2="37.2119">
			<stop  offset="0" style="stop-color:#000000"/>
			<stop  offset="1" style="stop-color:#6086C4;stop-opacity:0"/>
		</linearGradient>
		<path class="st7" d="M116.7,36.8V1.6h5.2V32h6.9v4.9H116.7z"/>
	</g>
</g>
<g id="XMLID_1_">
	<g>
		<linearGradient id="SVGID_9_" gradientUnits="userSpaceOnUse" x1="67.0488" y1="1.165" x2="67.0488" y2="37.2119">
			<stop  offset="0" style="stop-color:#332C3A"/>
			<stop  offset="1" style="stop-color:#725481"/>
		</linearGradient>
		<path class="st8" d="M131.6,35.4V0.2h11.9v5.3h-6.7v9.6h4.8v5.3h-4.8v9.7h6.7v5.3H131.6z"/>
		<linearGradient id="SVGID_10_" gradientUnits="userSpaceOnUse" x1="67.0488" y1="1.165" x2="67.0488" y2="37.2119">
			<stop  offset="0" style="stop-color:#332C3A"/>
			<stop  offset="1" style="stop-color:#725481"/>
		</linearGradient>
		<path class="st9" d="M146.4,35.4V0.2h5.1c3,0,5.2,0.9,6.6,2.6s2.1,4.2,2.1,7.6c0,1.9-0.2,3.5-0.7,4.9c-0.5,1.4-1.2,2.5-2.2,3.1
			l3.3,17h-4.9l-2.7-14.9h-1.4v14.9H146.4z M151.5,15.7c0.3,0,0.6,0,0.8,0s0.5-0.1,0.8-0.2s0.6-0.3,0.8-0.5s0.5-0.5,0.7-0.9
			s0.4-0.9,0.5-1.5s0.2-1.3,0.2-2.1s-0.1-1.5-0.2-2.1s-0.3-1.1-0.5-1.5S154.2,6.2,154,6s-0.5-0.4-0.8-0.5s-0.6-0.2-0.8-0.2
			s-0.5,0-0.8,0V15.7z"/>
	</g>
</g>
<g>
	<rect x="2.2" class="st10" width="127.5" height="38"/>
	<text transform="matrix(1 0 0 1 2.2349 35.2795)" class="st11 st12 st13">PINGBULL</text>
</g>
</svg>
